<?xml version="1.0" standalone="no"?>
<!DOCTYPE svg PUBLIC "-//W3C//DTD SVG 20010904//EN"
 "http://www.w3.org/TR/2001/REC-SVG-20010904/DTD/svg10.dtd">
<svg version="1.0" xmlns="http://www.w3.org/2000/svg"
 width="862.000000pt" height="862.000000pt" viewBox="0 0 862.000000 862.000000"
 preserveAspectRatio="xMidYMid meet">
<metadata>
Created by potrace 1.14, written by Peter Selinger 2001-2017
</metadata>
<g transform="translate(0.000000,862.000000) scale(0.100000,-0.100000)"
fill="#000000" stroke="none">
<path d="M5630 8593 c-30 -11 -68 -40 -116 -87 -144 -145 -254 -436 -320 -850
-11 -70 -23 -114 -33 -122 -9 -7 -30 -24 -47 -38 -69 -56 -99 -201 -54 -258
l20 -26 -29 -83 c-16 -46 -32 -91 -35 -100 -4 -9 -29 -30 -56 -48 -94 -61
-146 -184 -115 -274 l16 -46 -45 -88 c-39 -78 -50 -91 -91 -112 -86 -45 -146
-147 -149 -254 -2 -52 -8 -71 -38 -118 -28 -44 -43 -57 -69 -63 -63 -12 -169
-157 -169 -232 0 -45 -72 -134 -109 -134 -81 0 -174 -92 -177 -176 -2 -40 -8
-52 -49 -94 -42 -43 -52 -48 -100 -52 -39 -3 -64 -12 -90 -33 -40 -30 -80
-105 -72 -136 9 -32 -48 -64 -114 -65 -98 -1 -185 -69 -196 -154 -5 -37 -11
-43 -86 -91 l-80 -50 -61 16 c-52 14 -69 15 -106 5 -84 -22 -140 -85 -140
-158 0 -24 -8 -32 -53 -54 -36 -17 -59 -23 -68 -17 -35 22 -114 31 -159 19
-54 -15 -107 -67 -116 -114 -6 -37 -3 -35 -129 -81 l-69 -26 -47 21 c-102 43
-205 7 -245 -87 -12 -28 -23 -34 -113 -62 -54 -17 -104 -31 -110 -31 -6 0 -25
9 -43 20 -39 24 -113 26 -161 6 -41 -17 -87 -70 -87 -100 0 -20 -12 -28 -78
-51 -416 -151 -708 -363 -897 -650 -112 -169 -149 -298 -148 -510 1 -117 5
-156 27 -238 14 -53 26 -99 26 -102 0 -3 -17 -5 -39 -5 -57 0 -65 -16 -70
-142 -4 -120 3 -138 50 -138 l29 0 0 -74 c0 -92 27 -184 70 -237 21 -27 27
-40 18 -43 -77 -23 -150 -57 -215 -99 -92 -60 -239 -203 -249 -242 -14 -56 34
-198 101 -299 89 -134 211 -238 390 -333 l110 -58 7 -80 c32 -393 316 -721
720 -832 95 -27 376 -24 473 4 163 48 412 145 488 190 93 56 207 158 273 246
55 72 134 235 157 322 52 194 38 442 -33 603 -31 70 -7 115 78 147 128 49 180
117 191 253 9 107 24 132 99 169 l57 28 1145 0 c1215 0 1184 1 1245 -46 40
-32 58 -77 65 -164 8 -98 37 -163 100 -225 26 -25 71 -56 101 -70 30 -13 55
-25 57 -26 2 -1 -8 -25 -22 -52 -14 -28 -38 -90 -52 -139 -34 -115 -44 -317
-21 -438 49 -255 200 -484 412 -623 269 -177 583 -206 905 -84 58 22 130 47
160 57 68 22 177 75 239 117 231 157 380 404 413 689 21 181 -21 401 -108 556
l-35 63 30 37 c30 38 50 101 51 160 0 58 74 123 142 123 70 1 158 48 197 106
52 75 52 74 51 850 l-1 722 65 95 c192 283 286 618 286 1013 -1 410 -84 733
-310 1204 -223 464 -230 661 -45 1240 65 202 115 399 115 450 0 48 -37 117
-80 151 -41 33 -133 59 -206 59 -28 0 -116 -8 -195 -17 -183 -22 -761 -25
-944 -5 -240 27 -533 86 -740 149 l-60 19 -6 124 c-10 197 -48 312 -135 409
-62 68 -135 103 -227 107 -49 3 -86 -2 -117 -13z m208 -89 c52 -26 105 -81
135 -139 37 -74 49 -141 56 -305 l6 -165 40 -6 c22 -4 99 -23 170 -43 248 -70
512 -114 820 -137 192 -14 613 -6 795 16 216 25 319 15 369 -39 50 -53 36
-137 -84 -514 -35 -111 -76 -255 -90 -319 -19 -84 -32 -121 -46 -131 -22 -15
-25 -38 -5 -49 10 -6 15 -46 19 -168 3 -88 11 -186 18 -217 13 -58 13 -58 -40
-225 -115 -366 -275 -773 -378 -963 -161 -297 -386 -538 -669 -715 -123 -77
-273 -149 -535 -255 -414 -168 -540 -239 -676 -384 -120 -126 -194 -283 -227
-478 l-12 -72 -69 -17 c-38 -10 -70 -17 -72 -16 -1 2 -11 63 -23 137 -11 74
-35 198 -53 276 -24 104 -30 145 -22 158 8 13 5 21 -11 34 -13 11 -40 73 -73
171 -86 253 -225 550 -395 848 -42 72 -76 139 -76 148 0 8 -7 18 -15 21 -8 4
-37 38 -65 78 l-50 71 53 6 c69 8 111 31 146 80 91 124 11 289 -147 307 -28 3
-63 16 -87 32 -48 33 -112 66 -183 95 l-53 21 38 47 c27 34 49 50 78 58 82 23
307 -13 325 -51 30 -67 53 -99 90 -125 36 -26 51 -30 105 -30 54 0 70 4 107
30 127 88 112 272 -27 336 -22 10 -56 19 -76 19 -20 0 -63 12 -95 26 -33 14
-101 37 -153 50 -52 13 -96 26 -99 28 -5 6 71 117 95 139 39 35 133 60 246 65
71 3 107 1 107 -6 0 -21 55 -75 95 -93 108 -49 235 10 266 124 22 82 -11 167
-83 214 -35 24 -51 27 -161 31 -67 3 -159 5 -204 4 -46 -1 -83 0 -83 3 0 12
72 151 88 168 43 48 206 107 298 107 34 0 43 -4 55 -27 8 -14 34 -39 58 -55
93 -59 232 -25 275 67 39 82 30 157 -27 222 -18 20 -46 42 -63 49 -38 16 -258
18 -371 4 -42 -6 -78 -8 -81 -5 -9 9 53 161 77 188 38 41 117 76 225 98 l96
19 32 -35 c17 -20 44 -43 61 -52 38 -19 135 -20 173 0 93 48 132 173 84 267
-24 48 -84 90 -137 97 -46 6 -303 -22 -392 -42 -35 -9 -65 -14 -67 -12 -7 7
39 250 71 375 80 306 197 515 319 568 51 22 125 17 184 -12z m-152 -989 c13
-21 15 -31 6 -50 -13 -29 -27 -32 -147 -39 -169 -9 -311 -50 -383 -111 -28
-23 -35 -26 -43 -14 -22 34 21 122 75 153 77 45 261 83 403 85 67 1 74 -1 89
-24z m-218 -554 c25 -14 31 -61 8 -80 -9 -7 -69 -13 -162 -15 -169 -3 -236
-19 -338 -81 -32 -19 -61 -33 -63 -31 -12 11 22 92 53 126 40 44 88 65 195 85
86 17 273 14 307 -4z m-361 -532 c43 -6 88 -17 101 -25 27 -18 30 -68 5 -82
-9 -6 -77 -8 -158 -5 -160 7 -252 -5 -334 -43 -30 -13 -56 -22 -59 -20 -8 9
51 104 78 124 68 51 218 72 367 51z m3003 -369 c0 -5 36 -84 80 -174 200 -413
292 -742 307 -1096 16 -391 -104 -820 -299 -1071 l-28 -36 -137 -7 c-566 -28
-1254 -152 -2285 -412 -75 -18 -139 -34 -142 -34 -12 0 -5 52 20 136 72 251
229 419 515 553 57 27 196 85 309 131 564 226 854 431 1104 779 165 230 356
660 508 1142 18 59 36 105 41 102 4 -2 7 -8 7 -13z m-3410 -137 c94 -26 229
-89 244 -114 13 -23 -1 -67 -24 -74 -12 -4 -49 7 -97 29 -132 59 -185 71 -315
71 l-117 0 16 25 c24 39 66 81 88 90 28 11 106 1 205 -27z m-382 -369 c129
-43 262 -134 262 -179 0 -28 -24 -55 -48 -55 -10 0 -44 20 -77 45 -87 65 -191
106 -287 113 -43 2 -78 7 -78 9 0 18 35 65 58 77 39 22 84 19 170 -10z m-60
-179 c37 -15 58 -41 199 -243 188 -270 265 -395 389 -636 165 -321 275 -602
347 -892 30 -118 45 -195 82 -429 l5 -30 -307 -79 c-170 -44 -315 -81 -324
-84 -14 -3 -19 11 -29 80 -6 45 -20 125 -31 177 -24 118 -24 115 11 128 33 12
40 42 15 63 -12 10 -21 10 -40 2 -23 -11 -25 -9 -35 31 -72 277 -209 630 -335
864 -29 53 -45 95 -45 118 0 28 -4 35 -19 35 -13 0 -38 31 -82 100 -55 88 -62
107 -64 154 -2 86 -57 164 -128 181 -17 5 -39 30 -71 81 -25 41 -46 77 -46 79
0 2 9 9 19 14 28 15 95 -8 178 -61 65 -43 70 -49 76 -88 11 -87 91 -150 190
-150 119 0 197 75 197 191 0 103 -67 184 -162 196 -24 3 -52 14 -63 23 -11 10
-53 39 -93 65 -73 47 -73 47 -55 68 60 73 53 70 119 64 34 -3 80 -13 102 -22z
m-283 -143 c64 -32 126 -74 193 -129 41 -35 52 -51 52 -73 0 -30 -22 -50 -55
-50 -9 0 -42 22 -74 48 -104 87 -227 152 -288 152 -23 0 -23 1 -9 28 13 25 37
43 76 55 20 7 45 -1 105 -31z m-344 -228 c59 -41 179 -195 179 -230 0 -22 -30
-44 -59 -44 -23 0 -36 12 -82 83 -43 65 -64 88 -104 109 -27 15 -61 28 -74 28
l-25 0 30 31 c51 55 82 60 135 23z m-114 -152 c48 -25 83 -78 83 -124 0 -74
43 -143 110 -178 28 -14 47 -40 93 -123 61 -113 65 -125 42 -133 -37 -14 -3
-71 34 -59 18 5 26 -4 57 -72 177 -385 317 -867 349 -1199 l7 -71 -138 -33
c-208 -49 -519 -118 -522 -115 -3 3 -52 339 -49 340 1 0 16 5 32 11 23 7 30
16 30 34 0 22 -5 25 -40 28 l-40 3 -37 167 c-39 174 -104 399 -156 538 l-29
81 34 12 c29 11 34 17 31 39 -3 23 -8 27 -33 26 -16 0 -37 -4 -45 -7 -11 -5
-25 15 -55 81 -46 101 -126 225 -235 368 l-78 102 25 11 c32 15 58 14 91 -3
49 -26 79 -68 84 -118 7 -65 37 -118 87 -153 37 -26 51 -30 111 -30 60 0 74 4
112 30 138 96 104 312 -56 356 -21 6 -53 28 -75 51 l-38 41 86 58 c47 32 88
58 91 58 3 0 19 -8 37 -17z m-312 -136 c59 -39 117 -105 139 -158 13 -31 13
-37 0 -56 -9 -14 -26 -22 -43 -22 -22 0 -34 11 -66 60 -52 81 -140 138 -212
140 -39 0 -21 37 32 65 41 22 87 13 150 -29z m807 -223 c182 -303 308 -588
407 -919 58 -195 58 -190 21 -197 -36 -8 -49 -32 -27 -54 12 -12 21 -13 44 -5
l30 10 26 -142 c14 -77 29 -162 33 -187 l6 -46 -83 -21 c-46 -11 -87 -18 -91
-16 -4 3 -8 22 -8 42 -1 20 -11 98 -24 172 -21 120 -22 137 -8 152 17 20 10
48 -12 48 -10 0 -19 16 -26 43 -96 380 -214 695 -385 1023 l-73 142 39 17 c22
10 44 24 50 32 6 7 13 13 14 13 2 0 32 -48 67 -107z m-1269 43 c46 -19 121
-108 164 -193 34 -70 35 -73 19 -98 -19 -29 -56 -33 -78 -7 -9 9 -28 41 -42
70 -36 72 -98 136 -156 164 -41 20 -46 26 -37 39 29 39 76 48 130 25z m-92
-157 c51 -36 81 -93 84 -160 4 -77 39 -133 105 -166 106 -54 234 -2 273 111
l13 39 47 -90 c70 -136 72 -141 42 -155 -17 -8 -25 -19 -25 -36 0 -23 3 -24
39 -19 l40 5 55 -167 c61 -186 94 -303 131 -470 31 -140 31 -141 1 -141 -28 0
-51 -24 -42 -46 4 -11 16 -15 43 -12 l38 3 12 -70 c7 -39 19 -116 26 -173 l14
-104 -23 -8 c-13 -5 -117 -25 -231 -44 -401 -67 -374 -66 -1622 -66 l-1130 0
-26 83 c-87 272 -42 546 128 776 54 74 177 201 193 201 7 0 19 10 25 22 16 30
37 47 150 123 53 36 105 65 116 65 11 0 28 9 37 19 20 21 165 87 319 145 111
41 108 42 158 -30 22 -32 29 -54 29 -89 0 -56 17 -92 64 -133 33 -28 89 -52
126 -52 65 0 152 58 176 117 20 48 17 127 -6 173 -21 42 -76 84 -122 95 -29 7
-55 31 -45 41 11 12 231 74 244 70 7 -3 33 -33 58 -67 38 -52 45 -68 45 -108
1 -156 166 -250 298 -169 132 81 112 288 -33 343 -30 12 -52 30 -70 57 -15 22
-25 41 -23 43 2 1 48 18 103 38 103 37 121 37 166 6z m-360 -68 c41 -48 94
-134 112 -180 12 -34 5 -56 -26 -75 -26 -17 -47 2 -96 85 -25 41 -71 100 -103
131 l-58 57 23 16 c15 12 35 15 67 12 38 -4 51 -12 81 -46z m-576 -113 c26
-12 109 -116 139 -176 20 -40 13 -70 -20 -82 -36 -14 -49 -5 -98 73 -55 86
-73 108 -109 131 -31 21 -27 32 17 52 39 17 39 17 71 2z m3683 -1575 l-3 -208
-820 -2 -820 -1 95 20 c412 85 970 227 1340 341 96 30 183 55 193 56 16 1 17
-13 15 -206z m-4580 -824 l133 -131 -48 -51 c-74 -79 -119 -146 -168 -249 -44
-94 -85 -234 -85 -295 0 -18 -2 -33 -5 -33 -3 0 -29 12 -58 26 -239 121 -407
306 -458 504 l-11 45 85 82 c47 45 111 99 144 120 62 40 259 112 308 112 25 0
51 -21 163 -130z m6102 56 c97 -25 275 -116 346 -177 131 -113 219 -243 275
-406 32 -94 33 -102 34 -257 0 -182 -11 -235 -76 -374 -88 -189 -231 -332
-421 -420 -138 -65 -191 -76 -373 -75 -148 0 -167 2 -245 28 -235 78 -423 238
-529 451 -67 136 -85 215 -84 385 0 128 3 155 26 233 102 334 361 565 704 627
69 13 267 4 343 -15z m-5070 -60 c207 -67 363 -184 478 -360 292 -444 118
-1038 -370 -1264 -130 -60 -202 -76 -358 -76 -156 0 -228 16 -356 75 -114 53
-187 105 -275 197 -474 496 -209 1310 472 1453 24 5 107 8 184 6 120 -3 152
-7 225 -31z"/>
<path d="M6009 7803 c-13 -35 -5 -53 25 -53 19 0 26 7 31 30 8 36 0 50 -26 50
-12 0 -23 -10 -30 -27z"/>
<path d="M5987 7684 c-14 -15 -7 -75 9 -81 22 -8 46 24 42 57 -3 25 -35 40
-51 24z"/>
<path d="M5957 7533 c-4 -3 -7 -21 -7 -40 0 -28 3 -33 25 -33 18 0 26 7 31 25
3 14 4 32 0 40 -5 15 -37 21 -49 8z"/>
<path d="M5919 7373 c-6 -17 -7 -34 -2 -42 22 -35 54 -18 56 30 2 28 -2 35
-20 37 -17 3 -26 -4 -34 -25z"/>
<path d="M5890 7240 c-17 -32 -9 -64 17 -68 17 -3 24 3 29 22 13 54 -22 91
-46 46z"/>
<path d="M5861 7106 c-7 -8 -13 -27 -14 -43 -2 -22 3 -29 20 -31 42 -6 57 72
16 85 -5 2 -15 -3 -22 -11z"/>
<path d="M5810 6945 c-13 -33 -3 -55 25 -55 18 0 25 7 30 30 8 36 0 50 -26 50
-12 0 -23 -10 -29 -25z"/>
<path d="M5769 6803 c-13 -35 -5 -53 25 -53 19 0 26 7 31 30 8 36 0 50 -26 50
-12 0 -23 -10 -30 -27z"/>
<path d="M5730 6671 c-19 -36 -13 -61 15 -61 28 0 49 37 39 65 -9 21 -41 19
-54 -4z"/>
<path d="M7901 6626 c-20 -21 -22 -28 -11 -41 7 -8 18 -15 25 -15 19 0 47 37
43 57 -5 27 -31 27 -57 -1z"/>
<path d="M5678 6526 c-14 -32 -4 -56 22 -56 23 0 46 40 37 64 -10 25 -46 19
-59 -8z"/>
<path d="M7808 6506 c-14 -31 -4 -56 21 -56 22 0 41 27 41 59 0 31 -47 29 -62
-3z"/>
<path d="M5628 6386 c-14 -32 -4 -56 22 -56 22 0 45 43 36 67 -9 22 -46 15
-58 -11z"/>
<path d="M7744 6379 c-14 -28 -14 -33 -1 -47 20 -20 45 -9 53 23 14 57 -25 76
-52 24z"/>
<path d="M5582 6267 c-19 -23 -18 -58 1 -71 15 -9 21 -7 33 9 30 40 -3 100
-34 62z"/>
<path d="M7686 6254 c-3 -9 -6 -27 -6 -40 0 -36 45 -34 57 4 6 15 8 33 6 40
-7 17 -50 15 -57 -4z"/>
<path d="M5510 6111 c-14 -34 -7 -51 20 -51 21 0 40 28 40 59 0 34 -45 28 -60
-8z"/>
<path d="M7630 6115 c-14 -37 -12 -52 7 -60 22 -8 55 30 51 59 -5 33 -46 34
-58 1z"/>
<path d="M5442 5985 c-14 -31 -6 -55 19 -55 23 0 53 44 45 65 -9 25 -51 18
-64 -10z"/>
<path d="M7569 5973 c-13 -34 -5 -53 20 -53 22 0 41 27 41 59 0 33 -48 28 -61
-6z"/>
<path d="M5377 5872 c-21 -23 -22 -58 -2 -66 21 -8 57 30 53 57 -4 28 -30 33
-51 9z"/>
<path d="M7510 5841 c-14 -36 -7 -51 25 -51 18 0 26 7 31 25 14 57 -34 79 -56
26z"/>
<path d="M5290 5741 c-14 -28 -12 -51 5 -58 21 -8 55 25 55 54 0 18 -5 23 -25
23 -14 0 -29 -8 -35 -19z"/>
<path d="M7456 5718 c-20 -28 -20 -42 0 -59 14 -11 19 -10 36 11 22 27 20 63
-4 68 -9 2 -23 -7 -32 -20z"/>
<path d="M5207 5616 c-19 -29 -13 -56 13 -56 23 0 53 34 48 57 -5 28 -43 28
-61 -1z"/>
<path d="M7384 5578 c-15 -29 -15 -32 1 -44 22 -16 39 -9 54 23 9 19 9 29 0
39 -18 22 -37 16 -55 -18z"/>
<path d="M5120 5496 c-7 -14 -10 -32 -7 -40 14 -36 67 -4 67 40 0 33 -42 33
-60 0z"/>
<path d="M7316 5456 c-20 -31 -11 -56 18 -56 25 0 49 40 40 65 -9 23 -40 18
-58 -9z"/>
<path d="M5032 5380 c-17 -27 -15 -47 5 -54 22 -9 68 36 60 58 -9 22 -50 20
-65 -4z"/>
<path d="M7240 5326 c-7 -14 -10 -32 -7 -40 14 -36 67 -4 67 40 0 33 -42 33
-60 0z"/>
<path d="M4946 5271 c-35 -38 2 -82 38 -45 20 20 17 58 -5 62 -8 1 -23 -6 -33
-17z"/>
<path d="M7164 5205 c-19 -30 -12 -55 15 -55 25 0 54 41 45 64 -9 24 -41 19
-60 -9z"/>
<path d="M4851 5158 c-26 -27 -24 -52 5 -56 25 -4 57 30 52 55 -5 26 -33 27
-57 1z"/>
<path d="M7075 5090 c-20 -22 -13 -49 13 -58 16 -5 54 37 50 56 -5 25 -41 26
-63 2z"/>
<path d="M4752 5047 c-25 -26 -21 -57 8 -57 23 0 53 34 48 57 -5 27 -31 27
-56 0z"/>
<path d="M6982 4994 c-28 -20 -26 -58 4 -62 25 -4 57 30 52 55 -4 24 -28 27
-56 7z"/>
<path d="M6866 4897 c-23 -17 -17 -51 10 -55 25 -4 59 32 51 53 -8 18 -37 20
-61 2z"/>
<path d="M6736 4811 c-19 -21 -12 -51 14 -51 28 0 64 34 57 53 -9 23 -50 21
-71 -2z"/>
<path d="M6606 4745 c-20 -20 -20 -29 -2 -45 21 -16 71 8 71 35 0 26 -46 32
-69 10z"/>
<path d="M6490 4697 c-33 -17 -33 -51 0 -55 36 -4 68 22 54 44 -14 24 -25 26
-54 11z"/>
<path d="M6348 4639 c-22 -13 -23 -48 -2 -56 27 -10 66 14 62 40 -3 25 -33 33
-60 16z"/>
<path d="M6204 4576 c-15 -12 -17 -18 -8 -33 16 -25 37 -27 64 -5 46 37 -8 73
-56 38z"/>
<path d="M6079 4512 c-26 -22 -20 -52 10 -52 29 0 63 32 56 53 -9 22 -37 22
-66 -1z"/>
<path d="M5963 4448 c-25 -12 -32 -53 -10 -61 20 -7 67 22 67 42 0 15 -22 35
-33 30 -1 0 -12 -5 -24 -11z"/>
<path d="M5842 4364 c-28 -20 -26 -58 4 -62 28 -4 61 34 48 55 -15 24 -26 25
-52 7z"/>
<path d="M5727 4262 c-39 -43 -4 -76 40 -38 17 15 24 29 20 39 -8 22 -40 22
-60 -1z"/>
<path d="M5627 4162 c-36 -40 -5 -82 34 -46 23 20 22 57 -2 62 -8 1 -23 -6
-32 -16z"/>
<path d="M5526 4051 c-22 -24 -17 -55 10 -59 25 -4 57 30 52 55 -5 25 -41 28
-62 4z"/>
<path d="M5427 3942 c-36 -40 -5 -76 40 -47 16 11 23 24 21 38 -4 29 -39 34
-61 9z"/>
<path d="M5315 3840 c-20 -22 -14 -50 10 -50 30 0 55 20 55 45 0 20 -5 25 -23
25 -13 0 -32 -9 -42 -20z"/>
<path d="M4537 4842 c-38 -42 -4 -83 46 -54 21 13 27 23 25 42 -4 32 -46 40
-71 12z"/>
<path d="M4430 4740 c-24 -24 -25 -34 -5 -54 27 -27 75 2 75 45 0 24 -4 29
-25 29 -14 0 -34 -9 -45 -20z"/>
<path d="M4323 4646 c-23 -20 -26 -28 -17 -43 15 -25 42 -28 65 -7 23 21 25
60 3 68 -21 8 -20 9 -51 -18z"/>
<path d="M4206 4551 c-23 -25 -17 -55 12 -59 30 -4 64 26 60 52 -4 29 -49 33
-72 7z"/>
<path d="M5081 3681 c-45 -35 -5 -89 43 -58 29 20 35 61 10 71 -22 9 -26 8
-53 -13z"/>
<path d="M4950 3602 c-29 -24 -20 -62 15 -62 36 0 69 32 61 58 -9 27 -45 29
-76 4z"/>
<path d="M4816 3535 c-20 -21 -20 -39 -1 -55 25 -20 87 12 83 43 -4 28 -57 36
-82 12z"/>
<path d="M4688 3479 c-22 -12 -23 -42 -3 -59 18 -15 70 2 79 26 14 38 -33 58
-76 33z"/>
<path d="M3732 4224 c-25 -17 -29 -46 -8 -63 11 -10 21 -9 45 4 32 16 40 42
19 63 -16 16 -29 15 -56 -4z"/>
<path d="M3598 4149 c-23 -13 -23 -58 -1 -66 26 -10 68 19 68 47 0 19 -6 26
-25 27 -14 2 -33 -2 -42 -8z"/>
<path d="M3468 4079 c-25 -14 -23 -56 2 -64 30 -9 70 20 70 50 0 21 -5 25 -27
25 -16 0 -36 -5 -45 -11z"/>
<path d="M4150 3291 c-19 -5 -25 -13 -25 -36 0 -25 5 -31 26 -33 14 -2 36 5
49 16 19 16 21 22 11 40 -12 23 -20 25 -61 13z"/>
<path d="M4003 3250 c-15 -6 -23 -18 -23 -34 0 -30 26 -41 64 -26 22 8 27 15
24 38 -3 30 -27 38 -65 22z"/>
<path d="M3844 3206 c-16 -42 12 -64 62 -52 20 5 25 12 22 34 -3 23 -8 27 -41
30 -26 2 -39 -1 -43 -12z"/>
<path d="M3701 3176 c-22 -26 -4 -56 33 -56 37 0 59 20 54 47 -4 24 -69 30
-87 9z"/>
<path d="M3978 4376 c-40 -30 -9 -69 38 -47 18 8 24 18 22 34 -4 26 -35 33
-60 13z"/>
<path d="M3066 3897 c-23 -17 -17 -51 10 -55 11 -2 31 5 43 15 44 36 -7 74
-53 40z"/>
<path d="M1205 3853 c-4 -12 1 -24 15 -35 45 -36 91 -8 55 32 -22 25 -61 26
-70 3z"/>
<path d="M2928 3849 c-24 -14 -23 -46 2 -54 27 -9 72 21 68 43 -4 20 -45 27
-70 11z"/>
<path d="M2780 3795 c-17 -21 -5 -45 23 -45 33 0 62 23 54 44 -8 20 -60 21
-77 1z"/>
<path d="M1337 3793 c-15 -14 -5 -33 24 -48 32 -17 59 -8 59 21 0 24 -65 46
-83 27z"/>
<path d="M2642 3761 c-22 -14 -10 -46 18 -49 33 -4 65 20 57 42 -7 17 -52 22
-75 7z"/>
<path d="M1473 3734 c-14 -36 60 -64 81 -31 9 15 7 21 -8 33 -26 19 -65 18
-73 -2z"/>
<path d="M2508 3733 c-21 -5 -25 -49 -5 -55 6 -3 23 -2 37 2 18 4 25 13 25 30
0 26 -20 34 -57 23z"/>
<path d="M1614 3695 c-10 -25 16 -46 50 -43 33 3 49 34 24 49 -22 14 -68 10
-74 -6z"/>
<path d="M2351 3696 c-23 -27 -6 -48 36 -44 33 3 38 6 38 28 0 21 -5 26 -31
28 -19 2 -36 -3 -43 -12z"/>
<path d="M922 3678 c-7 -7 -12 -15 -12 -19 0 -16 33 -39 56 -39 35 0 43 29 15
52 -27 21 -42 23 -59 6z"/>
<path d="M1764 3675 c-11 -28 4 -45 40 -45 39 0 53 21 30 45 -20 19 -63 19
-70 0z"/>
<path d="M2213 3684 c-7 -3 -13 -17 -13 -30 0 -23 3 -25 38 -22 32 3 37 6 37
28 0 19 -6 25 -25 27 -14 1 -31 -1 -37 -3z"/>
<path d="M1911 3666 c-22 -27 -6 -46 39 -46 36 0 40 2 40 25 0 14 -6 25 -12
25 -7 0 -22 3 -34 6 -12 3 -26 -1 -33 -10z"/>
<path d="M2065 3666 c-29 -21 -12 -46 30 -46 39 0 55 21 35 45 -15 19 -40 19
-65 1z"/>
<path d="M1046 3604 c-8 -22 -9 -22 19 -40 27 -17 65 -11 65 11 0 17 -38 45
-61 45 -9 0 -20 -7 -23 -16z"/>
<path d="M1170 3517 c0 -29 18 -47 47 -47 34 0 41 29 14 52 -33 26 -61 24 -61
-5z"/>
<path d="M1287 3443 c-25 -24 17 -79 52 -68 27 8 27 29 -1 55 -22 21 -40 25
-51 13z"/>
<path d="M1387 3333 c-15 -14 -6 -43 19 -59 23 -16 27 -16 41 -1 15 14 15 18
-1 41 -16 25 -45 34 -59 19z"/>
<path d="M1477 3223 c-22 -21 12 -73 47 -73 25 0 30 25 11 54 -16 25 -44 34
-58 19z"/>
<path d="M1577 3113 c-15 -14 -6 -43 19 -59 23 -16 27 -16 41 -1 15 14 15 18
-1 41 -16 25 -45 34 -59 19z"/>
<path d="M3288 3103 c-20 -5 -25 -49 -6 -55 22 -8 67 4 73 19 12 32 -20 49
-67 36z"/>
<path d="M3153 3083 c-27 -5 -38 -32 -19 -51 18 -19 69 -3 74 23 4 15 -14 37
-28 33 -3 0 -15 -3 -27 -5z"/>
<path d="M3003 3060 c-28 -11 -30 -46 -4 -55 24 -7 71 11 71 28 0 16 -20 37
-34 36 -6 0 -21 -4 -33 -9z"/>
<path d="M2852 3040 c-39 -16 -24 -45 23 -45 36 0 40 3 40 25 0 28 -24 36 -63
20z"/>
<path d="M1683 3013 c-7 -19 29 -53 57 -53 26 0 33 30 14 51 -21 23 -62 25
-71 2z"/>
<path d="M2702 3021 c-25 -15 -9 -46 24 -49 34 -3 58 17 48 42 -7 17 -50 22
-72 7z"/>
<path d="M2550 2996 c-10 -13 -10 -19 0 -31 24 -29 85 -13 78 21 -4 25 -59 31
-78 10z"/>
<path d="M2423 2990 c-25 -10 -31 -45 -10 -53 21 -8 68 4 74 19 6 16 -14 44
-31 43 -6 0 -21 -4 -33 -9z"/>
<path d="M1824 2965 c-11 -28 4 -45 40 -45 37 0 54 23 35 46 -15 19 -68 18
-75 -1z"/>
<path d="M2261 2967 c-21 -26 -2 -48 38 -45 31 3 36 6 36 28 0 21 -5 26 -31
28 -18 2 -36 -3 -43 -11z"/>
<path d="M1970 2955 c-20 -24 -4 -45 35 -45 36 0 58 22 39 39 -19 18 -62 21
-74 6z"/>
<path d="M2114 2955 c-10 -26 4 -45 34 -45 38 0 60 24 42 45 -7 8 -26 15 -42
15 -16 0 -31 -6 -34 -15z"/>
<path d="M6577 1505 c-87 -24 -159 -67 -227 -135 -102 -101 -150 -216 -150
-360 0 -148 51 -270 155 -370 280 -268 744 -146 850 223 20 68 22 198 5 271
-28 125 -144 272 -260 331 -105 53 -263 70 -373 40z"/>
<path d="M1436 1450 c-123 -44 -228 -133 -286 -242 -44 -82 -60 -147 -60 -249
0 -148 45 -256 149 -359 107 -105 214 -150 361 -150 180 0 335 84 432 234 54
84 78 169 78 276 0 205 -103 371 -288 463 -82 40 -86 41 -205 44 -104 3 -131
0 -181 -17z"/>
</g>
</svg>
